<svg width="142" height="128" viewBox="0 0 142 128" fill="none" xmlns="http://www.w3.org/2000/svg">
<g clip-path="url(#clip0_4_114)">
<path d="M140.362 48.6046C140.312 48.6046 140.262 48.5891 140.221 48.5601L71.5751 0.753376C71.3662 0.608568 71.118 0.531181 70.8638 0.531614C70.6096 0.532048 70.3616 0.610281 70.1532 0.7558L2.00215 48.5596C1.94824 48.5974 1.88153 48.6123 1.81668 48.6009C1.75183 48.5895 1.69415 48.5528 1.65634 48.4989C1.61853 48.445 1.60368 48.3783 1.61507 48.3135C1.62645 48.2486 1.66313 48.1909 1.71703 48.1531L69.8682 0.349302C70.16 0.145606 70.5071 0.0361096 70.863 0.0355248C71.2189 0.03494 71.5664 0.143294 71.8588 0.34603L140.504 48.1526C140.548 48.1829 140.58 48.2261 140.597 48.2761C140.614 48.3262 140.615 48.3803 140.599 48.4308C140.583 48.4812 140.552 48.5252 140.509 48.5565C140.467 48.5878 140.415 48.6046 140.362 48.6046L140.362 48.6046Z" fill="#33220A"/>
<path d="M5.89648 50.2991L70.9313 2.10031L136.46 53.7287L74.2822 90.5883L40.5252 82.8937L5.89648 50.2991Z" fill="#E6E6E6"/>
<path d="M43.3749 113.355H11.2461C11.0488 113.355 10.8535 113.317 10.6711 113.241C10.4888 113.166 10.3231 113.055 10.1835 112.916C10.0439 112.777 9.93317 112.611 9.85761 112.429C9.78206 112.247 9.74316 112.051 9.74316 111.854C9.74316 111.657 9.78206 111.461 9.85761 111.279C9.93317 111.097 10.0439 110.931 10.1835 110.792C10.3231 110.653 10.4888 110.542 10.6711 110.467C10.8535 110.391 11.0488 110.353 11.2461 110.353H43.3749C43.5722 110.353 43.7676 110.391 43.9499 110.467C44.1323 110.542 44.298 110.653 44.4376 110.792C44.5772 110.931 44.6879 111.097 44.7635 111.279C44.839 111.461 44.8779 111.657 44.8779 111.854C44.8779 112.051 44.839 112.247 44.7635 112.429C44.6879 112.611 44.5772 112.777 44.4376 112.916C44.298 113.055 44.1323 113.166 43.9499 113.241C43.7676 113.317 43.5722 113.355 43.3749 113.355Z" fill="#33220A"/>
<path d="M22.7732 106.902H11.2461C11.0488 106.902 10.8535 106.863 10.6711 106.788C10.4888 106.713 10.3231 106.602 10.1835 106.463C10.0439 106.323 9.93317 106.158 9.85761 105.976C9.78206 105.793 9.74316 105.598 9.74316 105.401C9.74316 105.203 9.78206 105.008 9.85761 104.826C9.93317 104.644 10.0439 104.478 10.1835 104.339C10.3231 104.199 10.4888 104.089 10.6711 104.013C10.8535 103.938 11.0488 103.899 11.2461 103.9H22.7732C22.9705 103.899 23.1659 103.938 23.3482 104.013C23.5306 104.089 23.6963 104.199 23.8359 104.339C23.9755 104.478 24.0862 104.644 24.1618 104.826C24.2373 105.008 24.2762 105.203 24.2762 105.401C24.2762 105.598 24.2373 105.793 24.1618 105.976C24.0862 106.158 23.9755 106.323 23.8359 106.463C23.6963 106.602 23.5306 106.713 23.3482 106.788C23.1659 106.863 22.9705 106.902 22.7732 106.902Z" fill="#33220A"/>
<path d="M71.846 77.1453C71.6018 77.1456 71.3599 77.0982 71.1339 77.0058L31.0249 60.3634V8.26993C31.0254 7.80929 31.2087 7.36766 31.5344 7.04193C31.8601 6.71621 32.3017 6.53298 32.7624 6.53244H109.708C110.169 6.53298 110.611 6.71621 110.936 7.04193C111.262 7.36766 111.445 7.80929 111.446 8.26993V60.3998L111.371 60.432L72.5798 76.9977C72.3475 77.0953 72.098 77.1455 71.846 77.1453Z" fill="white"/>
<path d="M71.8461 77.2694C71.5857 77.2697 71.3278 77.2192 71.0867 77.1208L30.9009 60.4464V8.27002C30.9014 7.77646 31.0978 7.30328 31.4467 6.95428C31.7957 6.60529 32.2689 6.40898 32.7625 6.40842H109.709C110.202 6.40898 110.675 6.60529 111.024 6.95428C111.373 7.30328 111.57 7.77646 111.57 8.27002V60.4818L72.6286 77.1118C72.3809 77.2161 72.1148 77.2696 71.8461 77.2694ZM31.3973 60.1148L71.276 76.6618C71.648 76.8128 72.0645 76.8103 72.4346 76.6549L111.074 60.1541V8.27002C111.073 7.90808 110.929 7.56109 110.673 7.30517C110.418 7.04924 110.071 6.90527 109.709 6.90484H32.7625C32.4006 6.90527 32.0536 7.04924 31.7976 7.30517C31.5417 7.56109 31.3977 7.90808 31.3973 8.27002L31.3973 60.1148Z" fill="#33220A"/>
<path d="M139.866 48.1083H139.816L111.322 60.2757L72.3348 76.9234C72.1824 76.9874 72.019 77.0209 71.8537 77.0217C71.6884 77.0226 71.5246 76.9908 71.3716 76.9283L31.1487 60.2409L1.95385 48.1281L1.90925 48.1083H1.85956C1.39891 48.1088 0.957265 48.292 0.631533 48.6177C0.305801 48.9435 0.122581 49.3851 0.12207 49.8458V125.303C0.122582 125.763 0.305801 126.205 0.631533 126.531C0.957265 126.856 1.39891 127.04 1.85956 127.04H139.866C140.327 127.04 140.768 126.856 141.094 126.531C141.42 126.205 141.603 125.763 141.604 125.303V49.8458C141.603 49.3851 141.42 48.9435 141.094 48.6177C140.768 48.292 140.327 48.1088 139.866 48.1083ZM141.107 125.303C141.107 125.632 140.976 125.947 140.744 126.18C140.511 126.413 140.195 126.544 139.866 126.544H1.85956C1.53045 126.544 1.21486 126.413 0.982143 126.18C0.749427 125.947 0.618628 125.632 0.618497 125.303V49.8458C0.618947 49.5248 0.743437 49.2165 0.965941 48.9852C1.18844 48.7539 1.49174 48.6176 1.81242 48.6047L31.1487 60.7771L71.1806 77.3875C71.614 77.5638 72.0995 77.5611 72.5309 77.3801L111.322 60.8143L139.916 48.6047C140.236 48.6185 140.538 48.7552 140.76 48.9864C140.982 49.2175 141.106 49.5253 141.107 49.8458V125.303Z" fill="#33220A"/>
<path d="M71.4449 62.3735C69.9642 62.3762 68.5228 61.8974 67.338 61.0093L67.2646 60.9541L51.7982 49.1125C51.0819 48.5637 50.4807 47.8791 50.029 47.098C49.5772 46.3168 49.2838 45.4544 49.1654 44.5598C49.047 43.6652 49.1059 42.7561 49.3388 41.8843C49.5718 41.0126 49.9741 40.1952 50.5229 39.4789C51.0718 38.7626 51.7563 38.1615 52.5374 37.7097C53.3186 37.258 54.1811 36.9646 55.0756 36.8461C55.9702 36.7277 56.8793 36.7867 57.7511 37.0196C58.6229 37.2525 59.4402 37.6549 60.1565 38.2037L70.1745 45.8853L93.8485 15.0109C94.3976 14.2948 95.0823 13.6939 95.8636 13.2424C96.6449 12.791 97.5075 12.4978 98.4021 12.3797C99.2967 12.2616 100.206 12.3209 101.078 12.5542C101.949 12.7874 102.766 13.1901 103.482 13.7392L103.335 13.939L103.486 13.7421C104.931 14.8522 105.876 16.49 106.114 18.2961C106.353 20.1023 105.865 21.9292 104.758 23.3761L76.9117 59.6918C76.2676 60.5287 75.4395 61.2059 74.4914 61.671C73.5434 62.136 72.5009 62.3764 71.4449 62.3735Z" fill="#33220A"/>
</g>
<defs>
<clipPath id="clip0_4_114">
<rect width="141.482" height="127.004" fill="white" transform="translate(0.12207 0.0355225)"/>
</clipPath>
</defs>
</svg>
